<svg xmlns="http://www.w3.org/2000/svg" viewBox="0 0 360 96" role="img" aria-label="Caporal Studio">
  <rect width="360" height="96" fill="none"/>
  <g transform="translate(20 16)" fill="#041627">
    <rect x="30" y="0" width="4" height="6"/>
    <rect x="30" y="58" width="4" height="6"/>
    <rect x="58" y="30" width="6" height="4"/>
    <rect x="0" y="30" width="6" height="4"/>
    <rect x="45.7" y="10.3" width="4" height="6" transform="rotate(45 47.7 13.3)"/>
    <rect x="14.3" y="47.7" width="4" height="6" transform="rotate(45 16.3 50.7)"/>
    <rect x="45.7" y="47.7" width="4" height="6" transform="rotate(-45 47.7 50.7)"/>
    <rect x="14.3" y="10.3" width="4" height="6" transform="rotate(-45 16.3 13.3)"/>
    <path d="M32 6 A26 26 0 1 0 58 32 L44 32 A12 12 0 1 1 32 20 Z"/>
    <circle cx="32" cy="32" r="3" fill="#FFCC00"/>
  </g>
  <text x="96" y="43" fill="#041627" font-family="Inter, Arial, sans-serif" font-size="28" font-weight="700">Caporal</text>
  <rect x="209" y="30" width="6" height="6" fill="#FFCC00"/>
  <text x="96" y="66" fill="#4B5563" font-family="Inter, Arial, sans-serif" font-size="15" font-weight="500">Studio</text>
</svg>
